<?xml version="1.0" standalone="no"?>
<!DOCTYPE svg PUBLIC "-//W3C//DTD SVG 20010904//EN"
 "http://www.w3.org/TR/2001/REC-SVG-20010904/DTD/svg10.dtd">
<svg version="1.0" xmlns="http://www.w3.org/2000/svg"
 width="362.000000pt" height="358.000000pt" viewBox="0 0 362.000000 358.000000"
 preserveAspectRatio="xMidYMid meet">

<g transform="translate(0.000000,358.000000) scale(0.100000,-0.100000)"
fill="#000000" stroke="none">
<path d="M5 1790 c0 -987 1 -1526 2 -1197 3 632 3 627 47 627 9 0 16 5 16 10
0 6 9 10 20 10 11 0 20 5 20 10 0 6 14 10 30 10 17 0 30 5 30 10 0 6 8 10 18
10 10 0 24 9 32 20 8 11 22 20 32 20 10 0 18 5 18 10 0 6 9 10 20 10 11 0 20
5 20 10 0 6 23 10 50 10 28 0 50 5 50 10 0 6 27 10 60 10 l60 0 0 -30 c0 -16
5 -30 10 -30 6 0 10 -30 10 -70 0 -40 4 -70 10 -70 6 0 10 -13 10 -30 0 -16 5
-30 10 -30 6 0 10 -9 10 -20 0 -11 5 -20 10 -20 6 0 10 -8 10 -18 0 -10 9 -24
20 -32 11 -8 20 -22 20 -32 0 -13 8 -18 30 -18 17 0 30 -4 30 -10 0 -5 18 -10
40 -10 22 0 40 -4 40 -10 0 -5 23 -10 50 -10 28 0 50 -4 50 -10 0 -5 9 -10 20
-10 11 0 20 -4 20 -10 0 -5 9 -10 20 -10 16 0 20 -7 20 -30 0 -16 5 -30 10
-30 6 0 10 -47 10 -120 0 -73 4 -120 10 -120 6 0 10 -22 10 -50 0 -43 -3 -50
-20 -50 -11 0 -20 -4 -20 -10 0 -5 -13 -10 -30 -10 -16 0 -30 -4 -30 -10 0 -5
-9 -10 -20 -10 -11 0 -20 -4 -20 -10 0 -5 -13 -10 -30 -10 -16 0 -30 -4 -30
-10 0 -5 -9 -10 -20 -10 -13 0 -20 -7 -20 -20 0 -26 12 -26 30 0 10 14 26 20
52 20 21 0 38 5 38 10 0 6 9 10 20 10 11 0 20 5 20 10 0 6 14 10 30 10 17 0
30 5 30 10 0 6 9 10 20 10 18 0 20 7 20 70 0 40 -4 70 -10 70 -6 0 -10 47 -10
120 0 73 -4 120 -10 120 -5 0 -10 5 -10 10 0 6 23 10 50 10 28 0 50 -4 50 -10
0 -6 90 -10 250 -10 160 0 250 4 250 10 0 6 27 10 60 10 33 0 60 4 60 10 0 6
27 10 60 10 33 0 60 4 60 10 0 6 50 10 130 10 80 0 130 4 130 10 0 6 110 10
310 10 200 0 310 4 310 10 0 6 27 10 60 10 l60 0 0 -150 c0 -93 4 -150 10
-150 6 0 10 -37 10 -90 l0 -90 36 0 c27 0 43 -7 64 -30 15 -16 35 -30 44 -30
9 0 16 -4 16 -10 0 -5 9 -10 20 -10 11 0 20 3 20 6 0 10 -28 34 -40 34 -7 0
-25 14 -40 30 -21 23 -37 30 -64 30 l-36 0 0 90 c0 53 -4 90 -10 90 -6 0 -10
53 -10 140 l0 140 180 0 c113 0 180 4 180 10 0 6 11 10 25 10 29 0 95 59 95
85 0 8 5 15 10 15 6 0 10 14 10 30 0 17 -4 30 -10 30 -5 0 -10 23 -10 50 0 28
-4 50 -10 50 -5 0 -10 18 -10 40 0 38 2 40 30 40 17 0 30 -4 30 -10 0 -6 40
-10 100 -10 60 0 100 -4 100 -10 0 -5 9 -10 20 -10 20 0 20 -8 23 -643 1 -353
2 166 2 1153 0 987 -1 1393 -2 903 l-3 -893 -200 0 c-193 0 -200 1 -200 20 0
11 -4 20 -10 20 -5 0 -10 7 -10 16 0 9 -14 29 -30 44 -17 15 -30 35 -30 44 0
9 -4 16 -10 16 -5 0 -10 23 -10 50 0 28 -4 50 -10 50 -5 0 -10 9 -10 20 0 11
5 20 10 20 6 0 10 30 10 70 0 40 4 70 10 70 6 0 10 23 10 50 0 28 5 50 10 50
6 0 10 14 10 30 0 17 5 30 10 30 6 0 10 14 10 30 0 17 5 30 10 30 6 0 10 14
10 30 0 17 5 30 10 30 6 0 10 9 10 20 0 11 5 20 10 20 6 0 10 9 10 20 0 11 5
20 10 20 6 0 10 9 10 20 0 11 5 20 10 20 6 0 10 9 10 20 0 13 7 20 20 20 11 0
20 5 20 10 0 6 9 10 20 10 11 0 20 5 20 10 0 6 -70 10 -190 10 -120 0 -190 -4
-190 -10 0 -5 -18 -10 -40 -10 -22 0 -40 -4 -40 -10 0 -5 -13 -10 -30 -10 -16
0 -30 -4 -30 -10 0 -5 -18 -10 -40 -10 -22 0 -40 -4 -40 -10 0 -5 -9 -10 -20
-10 -11 0 -20 -4 -20 -10 0 -5 -13 -10 -30 -10 -16 0 -30 -4 -30 -10 0 -5 -13
-10 -30 -10 -16 0 -30 -4 -30 -10 0 -5 -13 -10 -30 -10 -16 0 -30 3 -30 6 0 3
18 23 40 44 22 21 40 44 40 50 0 15 25 40 40 40 15 0 40 25 40 40 0 22 29 40
64 40 20 0 36 5 36 10 0 6 -21 10 -46 10 -47 0 -74 -16 -74 -44 0 -9 -7 -16
-15 -16 -18 0 -65 -44 -65 -61 0 -6 -13 -24 -30 -39 -16 -15 -30 -35 -30 -44
0 -9 -8 -16 -20 -16 -11 0 -20 5 -20 10 0 6 -22 10 -50 10 -49 0 -50 1 -50 30
0 17 5 30 10 30 6 0 10 8 10 18 0 10 9 24 20 32 11 8 20 22 20 32 0 10 5 18
10 18 6 0 10 8 10 18 0 10 9 24 20 32 11 8 20 21 20 28 0 7 18 31 40 52 44 42
48 50 25 50 -19 0 -65 -44 -65 -62 0 -8 -9 -20 -20 -28 -11 -8 -20 -21 -20
-30 0 -9 -9 -22 -20 -30 -11 -8 -20 -22 -20 -32 0 -10 -4 -18 -10 -18 -5 0
-10 -8 -10 -18 0 -10 -9 -24 -20 -32 -12 -8 -20 -26 -20 -42 0 -24 -4 -28 -30
-28 -16 0 -30 5 -30 10 0 6 -22 10 -50 10 -27 0 -50 5 -50 10 0 6 -22 10 -50
10 -27 0 -50 5 -50 10 0 6 -9 10 -20 10 -11 0 -20 5 -20 10 0 6 -27 10 -60 10
-33 0 -60 4 -60 10 0 6 -53 10 -140 10 -87 0 -140 -4 -140 -10 0 -6 -27 -10
-60 -10 -59 0 -60 0 -60 28 0 16 -8 34 -20 42 -11 8 -20 22 -20 32 0 10 -4 18
-10 18 -5 0 -10 9 -10 20 0 11 -4 20 -10 20 -5 0 -10 9 -10 20 0 11 -4 20 -10
20 -5 0 -10 12 -10 26 0 23 -20 54 -34 54 -3 0 -6 -9 -6 -20 0 -11 5 -20 10
-20 6 0 10 -9 10 -20 0 -11 5 -20 10 -20 6 0 10 -9 10 -20 0 -11 5 -20 10 -20
6 0 10 -9 10 -20 0 -11 5 -20 10 -20 6 0 10 -13 10 -28 0 -16 8 -34 20 -42 12
-8 20 -26 20 -42 0 -27 -2 -28 -50 -28 -27 0 -50 -4 -50 -10 0 -5 -13 -10 -29
-10 -16 0 -31 -6 -34 -12 -3 -9 -11 -6 -24 10 -11 12 -28 22 -37 22 -9 0 -16
5 -16 10 0 6 -13 10 -30 10 -16 0 -30 5 -30 10 0 6 -22 10 -50 10 -27 0 -50 5
-50 10 0 6 -27 10 -60 10 -33 0 -60 4 -60 10 0 6 -13 10 -28 10 -16 0 -34 8
-42 20 -8 12 -26 20 -42 20 -15 0 -28 5 -28 10 0 6 -60 10 -160 10 -100 0
-160 -4 -160 -10 0 -5 5 -10 10 -10 6 0 10 -8 10 -18 0 -10 9 -24 20 -32 11
-8 20 -22 20 -32 0 -10 5 -18 10 -18 6 0 10 -9 10 -20 0 -11 5 -20 10 -20 6 0
10 -13 10 -30 0 -16 5 -30 10 -30 6 0 10 -9 10 -20 0 -11 5 -20 10 -20 6 0 10
-9 10 -20 0 -11 5 -20 10 -20 6 0 10 -13 10 -30 0 -16 5 -30 10 -30 6 0 10 -9
10 -20 0 -11 5 -20 10 -20 6 0 10 -22 10 -50 0 -27 5 -50 10 -50 6 0 10 -18
10 -40 0 -22 5 -40 10 -40 6 0 10 -27 10 -60 0 -33 4 -60 10 -60 6 0 10 -9 10
-20 0 -11 5 -20 10 -20 6 0 10 14 10 30 0 17 -4 30 -10 30 -5 0 -10 23 -10 50
0 28 -4 50 -10 50 -5 0 -10 23 -10 50 0 28 -4 50 -10 50 -5 0 -10 18 -10 40 0
22 -4 40 -10 40 -5 0 -10 9 -10 20 0 11 -4 20 -10 20 -5 0 -10 17 -10 38 0 26
-6 42 -20 52 -12 8 -20 26 -20 42 0 15 -4 28 -10 28 -5 0 -10 14 -10 30 0 17
-4 30 -10 30 -5 0 -10 9 -10 20 0 11 -4 20 -10 20 -5 0 -10 8 -10 18 0 10 -9
24 -20 32 -11 8 -20 18 -20 22 0 4 59 8 130 8 80 0 130 -4 130 -10 0 -5 14
-10 30 -10 17 0 30 -4 30 -10 0 -5 9 -10 20 -10 11 0 20 -4 20 -10 0 -5 9 -10
20 -10 11 0 20 -4 20 -10 0 -6 27 -10 60 -10 33 0 60 -4 60 -10 0 -5 23 -10
50 -10 28 0 50 -4 50 -10 0 -5 18 -10 40 -10 22 0 40 -4 40 -10 0 -5 9 -10 20
-10 12 0 20 -7 20 -16 0 -20 -24 -44 -44 -44 -9 0 -16 -4 -16 -10 0 -5 -9 -10
-19 -10 -11 0 -22 -6 -25 -12 -5 -10 -7 -10 -12 0 -3 6 -14 12 -25 12 -10 0
-19 5 -19 10 0 6 -8 10 -18 10 -10 0 -24 9 -32 20 -8 12 -26 20 -42 20 -15 0
-28 5 -28 10 0 6 -9 10 -20 10 -11 0 -20 5 -20 10 0 6 -9 10 -20 10 -11 0 -20
5 -20 10 0 6 -47 10 -120 10 -73 0 -120 -4 -120 -10 0 -5 7 -10 16 -10 23 0
44 -25 44 -54 0 -14 5 -26 10 -26 6 0 10 -13 10 -30 0 -16 5 -30 10 -30 6 0
10 -18 10 -40 0 -22 5 -40 10 -40 6 0 10 -22 10 -50 0 -27 5 -50 10 -50 6 0
10 -27 10 -60 0 -33 4 -60 10 -60 6 0 10 -18 10 -40 0 -22 -4 -40 -10 -40 -5
0 -10 -9 -10 -20 0 -11 -4 -20 -10 -20 -5 0 -10 -8 -10 -18 0 -10 -9 -24 -20
-32 -11 -8 -20 -22 -20 -32 0 -10 -4 -18 -10 -18 -5 0 -10 -9 -10 -20 0 -11
-4 -20 -10 -20 -5 0 -10 -9 -10 -20 0 -11 -4 -20 -10 -20 -5 0 -10 -7 -10 -16
0 -22 -32 -53 -38 -36 -2 8 -27 12 -73 12 -39 0 -69 4 -69 10 0 6 -83 10 -230
10 -147 0 -230 -4 -230 -10 0 -5 -22 -10 -50 -10 l-50 0 -3 833 c-1 457 -2 24
-2 -963z m1805 920 c0 -5 -4 -10 -10 -10 -5 0 -10 -9 -10 -20 0 -11 -4 -20
-10 -20 -6 0 -10 -77 -10 -210 0 -133 4 -210 10 -210 6 0 10 -37 10 -90 0 -53
4 -90 10 -90 6 0 10 -13 10 -30 0 -23 4 -30 20 -30 11 0 20 5 20 10 0 6 -4 10
-10 10 -5 0 -10 9 -10 20 0 11 -4 20 -10 20 -6 0 -10 40 -10 100 0 60 -4 100
-10 100 -6 0 -10 70 -10 190 0 120 4 190 10 190 6 0 10 9 10 20 0 11 5 20 10
20 6 0 10 9 10 20 0 17 7 20 50 20 28 0 50 -4 50 -10 0 -5 18 -10 40 -10 22 0
40 -4 40 -10 0 -5 9 -10 20 -10 18 0 20 -7 20 -60 0 -33 -4 -60 -10 -60 -5 0
-10 -22 -10 -50 0 -27 -4 -50 -10 -50 -6 0 -10 -37 -10 -90 0 -53 4 -90 10
-90 6 0 10 -53 10 -140 0 -87 -4 -140 -10 -140 -5 0 -10 -9 -10 -20 0 -24 6
-25 26 -6 11 11 14 47 14 160 0 91 -4 146 -10 146 -6 0 -10 37 -10 90 0 53 4
90 10 90 6 0 10 23 10 50 0 28 5 50 10 50 6 0 10 27 10 60 0 33 4 60 10 60 6
0 10 -4 10 -10 0 -5 9 -10 20 -10 16 0 20 -7 20 -30 0 -16 5 -30 10 -30 6 0
10 -13 10 -30 0 -16 5 -30 10 -30 6 0 10 -13 10 -30 0 -16 5 -30 10 -30 6 0
10 -8 10 -18 0 -10 9 -24 20 -32 11 -8 20 -22 20 -32 0 -10 5 -18 10 -18 6 0
10 -32 10 -76 0 -72 -2 -78 -30 -104 -17 -15 -30 -35 -30 -44 0 -9 -4 -16 -10
-16 -5 0 -10 -13 -10 -30 0 -16 -4 -30 -10 -30 -5 0 -10 -9 -10 -20 0 -11 5
-20 10 -20 6 0 10 5 10 10 0 6 9 10 20 10 23 0 28 34 8 44 -10 5 -10 7 0 12 6
3 12 12 12 20 0 8 11 26 25 39 24 25 55 33 55 15 0 -5 -4 -10 -10 -10 -5 0
-10 -9 -10 -20 0 -11 -4 -20 -10 -20 -5 0 -10 -17 -10 -38 0 -26 -6 -42 -20
-52 -11 -8 -20 -22 -20 -32 0 -10 -4 -18 -10 -18 -5 0 -10 -9 -10 -20 0 -11 3
-20 6 -20 11 0 34 29 34 44 0 9 5 16 10 16 6 0 10 9 10 20 0 11 5 20 10 20 6
0 10 14 10 30 0 17 5 30 10 30 6 0 10 7 10 15 0 9 16 31 35 50 19 19 41 35 50
35 8 0 15 5 15 10 0 6 9 10 20 10 11 0 20 5 20 10 0 6 18 10 40 10 22 0 40 5
40 10 0 6 18 10 40 10 22 0 40 5 40 10 0 6 9 10 20 10 11 0 20 5 20 10 0 6 27
10 60 10 33 0 60 -4 60 -10 0 -14 78 -12 82 2 6 16 58 -35 58 -57 0 -8 7 -15
16 -15 20 0 44 -24 44 -44 0 -9 5 -16 10 -16 15 0 12 49 -4 66 -8 8 -22 14
-30 14 -9 0 -16 7 -16 16 0 9 -13 29 -30 44 -17 15 -30 35 -30 44 0 9 -4 16
-10 16 -5 0 -10 9 -10 20 0 11 -7 20 -15 20 -15 0 -65 42 -65 55 0 3 9 5 20 5
11 0 20 5 20 10 0 6 9 10 20 10 11 0 20 5 20 10 0 6 9 10 20 10 11 0 20 5 20
10 0 6 9 10 20 10 11 0 20 5 20 10 0 6 18 10 40 10 22 0 40 5 40 10 0 6 18 10
40 10 22 0 40 5 40 10 0 6 9 10 20 10 16 0 20 -7 20 -30 0 -16 -4 -30 -10 -30
-5 0 -10 -18 -10 -40 0 -22 -4 -40 -10 -40 -5 0 -10 -9 -10 -20 0 -11 -4 -20
-10 -20 -5 0 -10 -9 -10 -20 0 -11 -4 -20 -10 -20 -5 0 -10 -13 -10 -30 0 -16
-4 -30 -10 -30 -6 0 -10 -26 -10 -58 0 -46 -4 -60 -20 -72 -21 -15 -28 -50
-10 -50 6 0 10 -9 10 -20 0 -11 5 -20 10 -20 6 0 10 -9 10 -20 0 -13 7 -20 20
-20 11 0 20 5 20 10 0 6 -4 10 -10 10 -5 0 -10 14 -10 30 0 17 -4 30 -10 30
-5 0 -10 9 -10 20 0 11 5 20 10 20 6 0 10 27 10 60 0 33 4 60 10 60 6 0 10 17
10 38 0 26 6 42 20 52 12 8 20 26 20 42 0 15 5 28 10 28 6 0 10 14 10 30 0 17
5 30 10 30 6 0 10 18 10 40 0 38 2 40 30 40 17 0 30 5 30 10 0 6 -30 10 -70
10 -40 0 -70 -4 -70 -10 0 -5 -18 -10 -40 -10 -22 0 -40 -4 -40 -10 0 -5 -18
-10 -40 -10 -22 0 -40 -4 -40 -10 0 -5 -9 -10 -20 -10 -11 0 -20 -4 -20 -10 0
-5 -9 -10 -20 -10 -11 0 -20 -4 -20 -10 0 -5 -9 -10 -20 -10 -11 0 -20 -4 -20
-10 0 -5 -18 -10 -40 -10 -22 0 -40 5 -40 10 0 6 -9 10 -20 10 -11 0 -20 5
-20 10 0 6 -7 10 -16 10 -15 0 -44 23 -44 34 0 3 14 6 30 6 17 0 30 5 30 10 0
6 14 10 30 10 17 0 30 5 30 10 0 6 14 10 30 10 17 0 30 5 30 10 0 6 18 10 40
10 22 0 40 5 40 10 0 6 9 10 20 10 11 0 20 5 20 10 0 6 23 10 50 10 28 0 50 5
50 10 0 6 50 10 130 10 l130 0 0 -28 c0 -16 -8 -34 -20 -42 -11 -8 -20 -26
-20 -40 0 -14 -9 -32 -20 -40 -12 -8 -20 -26 -20 -42 0 -15 -4 -28 -10 -28 -5
0 -10 -18 -10 -40 0 -22 -4 -40 -10 -40 -5 0 -10 -9 -10 -20 0 -11 -4 -20 -10
-20 -5 0 -10 -22 -10 -50 0 -27 -4 -50 -10 -50 -6 0 -10 -30 -10 -70 0 -40 -4
-70 -10 -70 -5 0 -10 -13 -10 -30 0 -16 -4 -30 -10 -30 -18 0 -11 -35 10 -50
11 -8 20 -26 20 -40 0 -14 9 -32 20 -40 11 -8 20 -21 20 -30 0 -9 9 -22 20
-30 11 -8 20 -22 20 -32 0 -10 5 -18 10 -18 6 0 10 -4 10 -10 0 -5 -13 -10
-30 -10 -16 0 -30 -4 -30 -10 0 -5 -18 -10 -40 -10 -22 0 -40 -4 -40 -10 0 -5
-13 -10 -30 -10 -16 0 -30 -4 -30 -10 0 -5 -18 -10 -40 -10 -38 0 -40 2 -40
30 0 17 -4 30 -10 30 -5 0 -10 -12 -10 -26 0 -41 -51 -76 -62 -42 -3 9 -10 8
-22 -5 -17 -17 -17 -19 3 -36 12 -10 21 -30 21 -45 0 -22 4 -26 30 -26 17 0
30 5 30 10 0 6 -4 10 -10 10 -5 0 -10 9 -10 19 0 11 -6 21 -12 24 -7 2 -9 8
-5 13 4 5 12 2 17 -6 7 -12 12 -11 28 8 13 15 31 22 56 22 20 0 36 5 36 10 0
6 14 10 30 10 17 0 30 5 30 10 0 6 18 10 40 10 22 0 40 5 40 10 0 6 14 10 30
10 23 0 30 -4 30 -20 0 -11 5 -20 10 -20 6 0 10 -27 10 -60 0 -33 4 -60 10
-60 6 0 10 -13 10 -30 0 -16 -4 -30 -10 -30 -5 0 -10 5 -10 10 0 6 -83 10
-230 10 -147 0 -230 -4 -230 -10 0 -5 -22 -10 -50 -10 -27 0 -50 -4 -50 -10 0
-5 23 -10 50 -10 28 0 50 5 50 10 0 6 82 10 226 10 235 0 254 -3 254 -44 0 -9
5 -16 10 -16 6 0 10 -22 10 -50 0 -27 5 -50 10 -50 6 0 10 -13 10 -30 0 -23
-4 -30 -20 -30 -11 0 -20 5 -20 10 0 6 -70 10 -190 10 -120 0 -190 -4 -190
-10 0 -5 -9 -10 -20 -10 -13 0 -20 -7 -20 -20 0 -11 5 -20 10 -20 6 0 10 5 10
10 0 6 9 10 20 10 11 0 20 5 20 10 0 6 63 10 170 10 107 0 170 -4 170 -10 0
-5 18 -10 40 -10 l40 0 0 -50 c0 -27 5 -50 10 -50 6 0 10 -22 10 -49 0 -30 5
-52 13 -55 10 -5 10 -7 0 -12 -7 -3 -13 -12 -13 -20 0 -25 -67 -84 -95 -84
-14 0 -25 -4 -25 -10 0 -6 -87 -10 -240 -10 -153 0 -240 -4 -240 -10 0 -6
-113 -10 -320 -10 -207 0 -320 -4 -320 -10 0 -6 -47 -10 -120 -10 -73 0 -120
-4 -120 -10 0 -6 -27 -10 -60 -10 -33 0 -60 -4 -60 -10 0 -6 -27 -10 -60 -10
-33 0 -60 -4 -60 -10 0 -6 -87 -10 -240 -10 -153 0 -240 4 -240 10 0 6 -22 10
-50 10 -27 0 -50 5 -50 10 0 6 -13 10 -30 10 -16 0 -30 5 -30 10 0 6 -13 10
-30 10 -16 0 -30 5 -30 10 0 6 -18 10 -40 10 -22 0 -40 5 -40 10 0 6 -18 10
-40 10 -22 0 -40 5 -40 10 0 6 -12 10 -26 10 -29 0 -54 21 -54 44 0 9 -4 16
-10 16 -5 0 -10 8 -10 18 0 10 -9 24 -20 32 -12 8 -20 26 -20 42 0 15 -4 28
-10 28 -6 0 -10 30 -10 70 0 40 -4 70 -10 70 -5 0 -10 14 -10 30 l0 30 178 0
c166 0 179 -1 192 -20 8 -11 18 -20 22 -20 4 0 8 9 8 20 0 18 7 20 80 20 47 0
80 -4 80 -10 0 -6 27 -10 60 -10 33 0 60 4 60 10 0 6 -27 10 -60 10 -33 0 -60
4 -60 10 0 6 -37 10 -90 10 -53 0 -90 4 -90 10 0 6 9 10 20 10 11 0 20 5 20
10 0 6 -22 10 -50 10 -47 0 -50 2 -50 26 0 26 -20 54 -40 54 -18 0 -40 -27
-40 -50 0 -39 50 -68 64 -37 5 10 7 10 12 0 3 -7 14 -13 25 -13 10 0 19 -4 19
-10 0 -6 -67 -10 -180 -10 l-180 0 0 30 c0 17 5 30 10 30 6 0 10 14 10 30 0
17 5 30 10 30 6 0 10 9 10 20 0 11 5 20 10 20 6 0 10 9 10 20 0 19 7 20 110
20 67 0 110 -4 110 -10 0 -6 50 -10 130 -10 80 0 130 -4 130 -10 0 -5 23 -10
50 -10 28 0 50 -4 50 -10 0 -5 18 -10 40 -10 22 0 40 -4 40 -10 0 -5 14 -10
30 -10 17 0 30 -4 30 -10 0 -5 14 -10 30 -10 17 0 30 5 30 10 0 6 -13 10 -30
10 -16 0 -30 5 -30 10 0 6 -13 10 -30 10 -16 0 -30 5 -30 10 0 6 -18 10 -40
10 -22 0 -40 5 -40 10 0 6 -22 10 -50 10 -27 0 -50 5 -50 10 0 6 -50 10 -130
10 -80 0 -130 4 -130 10 0 6 -40 10 -100 10 -93 0 -100 1 -100 20 0 11 5 20
10 20 6 0 10 9 10 20 0 11 5 20 10 20 6 0 10 14 10 30 0 17 5 30 10 30 6 0 10
8 10 18 0 10 9 24 20 32 11 8 20 22 20 32 0 16 10 18 70 18 40 0 70 -4 70 -10
0 -5 14 -10 30 -10 17 0 30 -4 30 -10 0 -5 18 -10 40 -10 22 0 40 -4 40 -10 0
-5 9 -10 20 -10 11 0 20 -4 20 -10 0 -5 9 -10 20 -10 11 0 20 -4 20 -10 0 -5
17 -10 38 -10 26 0 42 -6 52 -20 8 -12 26 -20 42 -20 15 0 28 -4 28 -10 0 -5
8 -10 18 -10 10 0 24 -9 32 -20 8 -11 22 -20 31 -20 10 0 19 -6 22 -12 2 -7 8
-10 12 -6 10 9 -40 58 -60 58 -8 0 -15 5 -15 10 0 6 -9 10 -20 10 -11 0 -20 5
-20 10 0 6 -13 10 -28 10 -16 0 -34 8 -42 20 -10 14 -26 20 -52 20 -21 0 -38
5 -38 10 0 6 -9 10 -20 10 -11 0 -20 5 -20 10 0 6 -9 10 -20 10 -11 0 -20 5
-20 10 0 6 -18 10 -40 10 -22 0 -40 5 -40 10 0 6 -13 10 -30 10 -16 0 -30 5
-30 10 0 6 -27 10 -60 10 -53 0 -60 2 -60 20 0 11 5 20 10 20 6 0 10 9 10 20
0 11 5 20 10 20 6 0 10 9 10 20 0 11 5 20 10 20 6 0 10 7 10 16 0 9 14 29 30
44 17 15 30 35 30 44 0 9 5 16 10 16 6 0 10 8 10 18 0 10 9 24 20 32 21 15 28
70 10 70 -5 0 -10 9 -10 20 0 11 -4 20 -10 20 -6 0 -10 27 -10 60 0 33 -4 60
-10 60 -5 0 -10 23 -10 50 0 28 -4 50 -10 50 -5 0 -10 18 -10 40 0 22 -4 40
-10 40 -5 0 -10 14 -10 30 0 17 -4 30 -10 30 -5 0 -10 14 -10 30 l0 30 70 0
c40 0 70 -4 70 -10 0 -5 9 -10 20 -10 11 0 20 -4 20 -10 0 -5 9 -10 20 -10 11
0 20 -4 20 -10 0 -5 14 -10 30 -10 17 0 30 -4 30 -10 0 -5 8 -10 18 -10 10 0
24 -9 32 -20 8 -11 22 -20 32 -20 11 0 18 -7 18 -20 0 -11 -7 -20 -15 -20 -20
0 -105 -85 -105 -105 0 -8 -7 -15 -16 -15 -19 0 -44 -24 -44 -42 0 -8 -9 -20
-20 -28 -11 -8 -20 -21 -20 -30 0 -9 -9 -22 -20 -30 -18 -13 -29 -50 -14 -50
11 0 34 29 34 42 0 8 9 20 20 28 11 8 20 20 20 28 0 20 32 50 38 34 4 -14 62
-17 62 -2 0 6 33 10 80 10 47 0 80 -4 80 -10 0 -5 9 -10 20 -10 11 0 20 -4 20
-10 0 -5 14 -10 30 -10 17 0 30 -4 30 -10 0 -5 7 -10 16 -10 9 0 29 -13 44
-30 15 -16 31 -30 34 -30 3 0 6 27 6 60 0 33 3 60 6 60 14 0 34 -31 34 -54 0
-14 5 -26 10 -26 6 0 10 -9 10 -20 0 -11 5 -20 10 -20 6 0 10 -13 10 -30 0
-16 5 -30 10 -30 6 0 10 -9 10 -20 0 -11 5 -20 10 -20 6 0 10 -7 10 -16 0 -8
18 -33 40 -54 22 -21 40 -44 40 -50 0 -7 14 -25 30 -40 17 -15 30 -33 30 -40
0 -16 26 -40 44 -40 22 0 20 13 -4 30 -11 8 -20 21 -20 28 0 7 -18 31 -40 52
-22 21 -40 44 -40 50 0 7 -13 25 -30 40 -16 15 -30 35 -30 44 0 9 -4 16 -10
16 -5 0 -10 9 -10 20 0 11 -4 20 -10 20 -5 0 -10 9 -10 20 0 11 -4 20 -10 20
-5 0 -10 9 -10 20 0 11 -4 20 -10 20 -5 0 -10 14 -10 30 0 17 -4 30 -10 30 -5
0 -10 9 -10 20 0 11 5 20 10 20 15 0 12 77 -2 84 -10 5 -10 7 0 12 6 3 12 14
12 25 0 10 5 19 10 19 6 0 10 9 10 20 0 11 5 20 10 20 6 0 10 -9 10 -20 0 -11
5 -20 10 -20 6 0 10 -22 10 -50 0 -27 5 -50 10 -50 6 0 10 27 10 60 0 33 -4
60 -10 60 -5 0 -10 14 -10 30 0 17 -4 30 -10 30 -5 0 -10 18 -10 40 l0 40 60
0 c33 0 60 4 60 10 0 6 27 10 60 10 33 0 60 -4 60 -10z m-400 -60 c0 -5 -4
-10 -10 -10 -5 0 -10 5 -10 10 0 6 5 10 10 10 6 0 10 -4 10 -10z m-20 -60 c0
-16 -4 -30 -10 -30 -6 0 -10 -40 -10 -100 0 -93 -1 -100 -20 -100 -11 0 -20 5
-20 10 0 6 -9 10 -20 10 -11 0 -20 5 -20 10 0 6 -40 10 -100 10 -60 0 -100 -4
-100 -10 0 -5 -9 -10 -20 -10 -11 0 -20 2 -20 5 0 10 130 135 141 135 16 0 39
26 39 44 0 11 9 16 28 16 16 0 34 8 42 20 10 14 26 20 52 20 36 0 38 -2 38
-30z m1080 0 c0 -5 7 -10 16 -10 8 0 22 -7 31 -15 14 -14 13 -18 -6 -34 -12
-10 -21 -24 -21 -30 0 -16 -25 -41 -40 -41 -22 0 -40 29 -40 64 0 20 -4 36
-10 36 -5 0 -10 9 -10 20 0 17 7 20 40 20 22 0 40 -4 40 -10z m120 -60 c0 -5
13 -10 28 -10 16 0 34 -8 42 -20 8 -11 21 -20 30 -20 9 0 22 -9 30 -20 8 -11
22 -20 32 -20 11 0 18 -7 18 -20 0 -13 7 -20 20 -20 13 0 20 -7 20 -20 0 -11
5 -20 10 -20 6 0 10 -9 10 -20 0 -17 -7 -20 -40 -20 -22 0 -40 5 -40 10 0 6
-30 10 -70 10 -40 0 -70 -4 -70 -10 0 -5 -9 -10 -20 -10 -11 0 -20 -4 -20 -10
0 -5 -18 -10 -40 -10 -22 0 -40 -4 -40 -10 0 -5 -13 -10 -30 -10 -16 0 -30 5
-30 10 0 6 5 10 10 10 15 0 13 97 -2 102 -16 6 112 136 135 137 9 1 17 -3 17
-9z m-1080 -100 c0 -16 -4 -30 -10 -30 -5 0 -10 14 -10 30 0 17 5 30 10 30 6
0 10 -13 10 -30z m-940 -520 c0 -6 30 -10 70 -10 l70 0 0 -30 c0 -16 -4 -30
-10 -30 -5 0 -10 -9 -10 -20 0 -11 -4 -20 -10 -20 -5 0 -10 -9 -10 -20 0 -11
-4 -20 -10 -20 -5 0 -10 -9 -10 -20 0 -11 -4 -20 -10 -20 -5 0 -10 -13 -10
-30 0 -16 -4 -30 -10 -30 -5 0 -10 -9 -10 -20 0 -11 -4 -20 -10 -20 -5 0 -10
5 -10 10 0 6 -12 10 -26 10 -16 0 -37 12 -54 30 -15 17 -33 30 -40 30 -7 0
-25 14 -40 30 -15 17 -35 30 -44 30 -9 0 -16 5 -16 10 0 6 -7 10 -16 10 -8 0
-33 18 -54 40 -42 44 -50 48 -50 25 0 -20 65 -85 85 -85 8 0 15 -4 15 -10 0
-5 8 -10 18 -10 10 0 24 -9 32 -20 8 -11 20 -20 28 -20 12 0 62 -43 62 -55 0
-3 -81 -5 -180 -5 -113 0 -180 -4 -180 -10 0 -5 -9 -10 -20 -10 -11 0 -20 -4
-20 -10 0 -5 9 -10 20 -10 11 0 20 5 20 10 0 6 73 10 200 10 193 0 200 -1 200
-20 0 -11 5 -20 10 -20 6 0 10 -22 10 -50 0 -27 -4 -50 -10 -50 -5 0 -10 -18
-10 -40 l0 -40 -60 0 c-33 0 -60 -4 -60 -10 0 -6 -27 -10 -60 -10 -33 0 -60
-4 -60 -10 0 -5 -8 -10 -18 -10 -10 0 -24 -9 -32 -20 -8 -11 -22 -20 -32 -20
-10 0 -18 -4 -18 -10 0 -5 -9 -10 -20 -10 -11 0 -20 -4 -20 -10 0 -5 -13 -10
-30 -10 -16 0 -30 -4 -30 -10 0 -5 -9 -10 -20 -10 -11 0 -20 -4 -20 -10 0 -5
-9 -10 -20 -10 -20 0 -20 7 -20 330 l0 330 50 0 c28 0 50 5 50 10 0 6 83 10
230 10 147 0 230 -4 230 -10z m2860 -146 c0 -8 -22 -37 -50 -64 -27 -27 -50
-54 -50 -60 0 -11 -65 -80 -75 -80 -3 0 -5 18 -5 40 0 22 -4 40 -10 40 -5 0
-10 23 -10 50 0 28 -4 50 -10 50 -5 0 -10 9 -10 20 0 19 7 20 110 20 93 0 110
-2 110 -16z m180 -224 c0 -233 -1 -240 -20 -240 -11 0 -20 5 -20 10 0 6 -40
10 -100 10 -60 0 -100 4 -100 10 0 6 -18 10 -40 10 -38 0 -40 2 -40 30 0 17
-4 30 -10 30 -6 0 -10 30 -10 70 l0 70 70 0 c40 0 70 -4 70 -10 0 -6 26 -10
59 -10 38 0 61 -4 64 -12 2 -7 8 -10 12 -6 18 17 -25 38 -79 38 -31 0 -56 5
-56 10 0 6 -22 10 -50 10 -27 0 -50 5 -50 10 0 6 5 10 10 10 6 0 10 7 10 16 0
8 23 37 50 64 28 27 50 54 50 60 0 6 10 22 23 35 19 20 32 24 90 24 l67 1 0
-240z m-3033 65 c8 -9 13 -19 10 -22 -6 -5 -37 21 -37 31 0 10 11 6 27 -9z
m273 -135 c0 -5 -4 -10 -10 -10 -5 0 -10 5 -10 10 0 6 5 10 10 10 6 0 10 -4
10 -10z"/>
<path d="M1010 2270 c0 -5 -7 -10 -16 -10 -22 0 -53 -32 -36 -38 7 -2 12 -21
12 -43 0 -21 5 -39 10 -39 6 0 10 -13 10 -30 0 -16 5 -30 10 -30 6 0 10 -11
10 -25 0 -34 61 -95 95 -95 14 0 25 -4 25 -10 0 -6 33 -10 80 -10 47 0 80 4
80 10 0 6 14 10 30 10 17 0 30 -4 30 -10 0 -5 -13 -10 -30 -10 -16 0 -30 -4
-30 -10 0 -5 -9 -10 -20 -10 -11 0 -20 -4 -20 -10 0 -5 18 -10 40 -10 22 0 40
5 40 10 0 6 9 10 20 10 11 0 20 5 20 10 0 6 23 10 50 10 28 0 50 -4 50 -10 0
-5 9 -10 20 -10 11 0 20 5 20 10 0 6 5 10 10 10 6 0 10 -13 10 -30 0 -23 -4
-30 -20 -30 -11 0 -20 -4 -20 -10 0 -6 -27 -10 -60 -10 -33 0 -60 -4 -60 -10
0 -6 30 -10 70 -10 40 0 70 4 70 10 0 6 9 10 20 10 18 0 20 7 20 70 0 40 -4
70 -10 70 -5 0 -10 14 -10 30 0 17 -4 30 -10 30 -5 0 -10 7 -10 15 0 20 -85
105 -105 105 -8 0 -15 5 -15 10 0 6 -9 10 -20 10 -11 0 -20 5 -20 10 0 6 -8
10 -18 10 -10 0 -24 9 -32 20 -8 12 -26 20 -42 20 -15 0 -28 5 -28 10 0 6 -43
10 -110 10 -67 0 -110 -4 -110 -10z m100 -20 c0 -5 -8 -10 -18 -10 -10 0 -24
-9 -32 -20 -8 -11 -22 -20 -32 -20 -11 0 -18 -7 -18 -20 0 -11 -4 -20 -10 -20
-5 0 -10 18 -10 40 0 33 3 40 20 40 11 0 20 5 20 10 0 6 18 10 40 10 22 0 40
-4 40 -10z m100 -70 c0 -11 -4 -20 -10 -20 -5 0 -10 -7 -10 -15 0 -20 -65 -85
-85 -85 -23 0 -19 53 5 70 11 8 20 22 20 32 0 11 7 18 20 18 11 0 20 5 20 10
0 6 9 10 20 10 13 0 20 -7 20 -20z m235 -65 c25 -24 45 -51 45 -60 0 -8 5 -15
10 -15 6 0 10 -13 10 -30 l0 -30 -70 0 c-63 0 -70 2 -70 20 0 11 5 20 10 20 6
0 10 30 10 70 0 39 2 70 5 70 3 0 26 -20 50 -45z"/>
<path d="M2630 2250 c0 -5 -13 -10 -28 -10 -16 0 -34 -8 -42 -20 -8 -11 -22
-20 -32 -20 -10 0 -18 -4 -18 -10 0 -5 -13 -10 -30 -10 -16 0 -30 -4 -30 -10
0 -5 -7 -10 -15 -10 -9 0 -36 -20 -60 -45 -25 -24 -45 -51 -45 -60 0 -8 -4
-15 -10 -15 -5 0 -10 -9 -10 -20 0 -11 -4 -20 -10 -20 -5 0 -10 -18 -10 -40 0
-22 5 -40 10 -40 6 0 10 14 10 30 0 17 5 30 10 30 6 0 10 9 10 20 0 11 5 20
10 20 6 0 10 7 10 15 0 15 42 65 55 65 3 0 5 -27 5 -60 0 -33 4 -60 10 -60 6
0 10 -7 10 -16 0 -9 9 -25 21 -35 19 -16 20 -20 6 -34 -9 -8 -32 -15 -51 -15
-20 0 -36 -4 -36 -10 0 -5 23 -10 50 -10 28 0 50 5 50 10 0 14 37 12 44 -2 5
-10 7 -10 12 0 4 8 33 12 95 12 53 0 89 4 89 10 0 6 9 10 20 10 11 0 20 5 20
10 0 6 9 10 20 10 11 0 20 5 20 10 0 6 9 10 20 10 13 0 20 7 20 20 0 11 5 20
10 20 17 0 13 249 -4 266 -17 17 -206 21 -206 4z m-80 -150 c0 -33 -4 -60 -10
-60 -5 0 -10 -9 -10 -20 0 -23 -25 -27 -46 -6 -16 17 -19 66 -4 66 6 0 10 11
10 25 0 31 18 54 43 55 14 0 17 -9 17 -60z"/>
<path d="M2930 2100 c0 -33 -4 -60 -10 -60 -5 0 -10 -9 -10 -20 0 -11 -4 -20
-10 -20 -5 0 -10 -21 -10 -46 0 -38 -5 -51 -30 -74 -16 -15 -30 -31 -30 -34 0
-15 33 -4 55 19 19 18 25 35 25 70 0 25 5 45 10 45 6 0 10 9 10 20 0 11 5 20
10 20 6 0 10 30 10 70 0 40 -4 70 -10 70 -6 0 -10 -27 -10 -60z"/>
<path d="M1730 1890 c0 -5 -22 -10 -50 -10 -27 0 -50 -4 -50 -10 0 -5 -9 -10
-20 -10 -13 0 -20 -7 -20 -20 0 -11 -4 -20 -10 -20 -5 0 -10 -18 -10 -40 0
-22 5 -40 10 -40 6 0 10 -9 10 -20 0 -13 7 -20 20 -20 11 0 20 -4 20 -10 0 -5
9 -10 20 -10 11 0 20 -4 20 -10 0 -5 9 -10 20 -10 11 0 20 -4 20 -10 0 -5 14
-10 30 -10 17 0 30 -4 30 -10 0 -5 12 -10 26 -10 29 0 54 -21 54 -44 0 -9 5
-16 10 -16 6 0 10 -9 10 -20 0 -11 5 -20 10 -20 6 0 10 -13 10 -30 0 -16 5
-30 10 -30 15 0 12 -70 -4 -86 -8 -8 -26 -14 -40 -14 -14 0 -26 -4 -26 -10 0
-5 -9 -10 -20 -10 -11 0 -20 -4 -20 -10 0 -5 -13 -10 -30 -10 -16 0 -30 -4
-30 -10 0 -5 -18 -10 -40 -10 -22 0 -40 -4 -40 -10 0 -6 -30 -10 -70 -10 -40
0 -70 4 -70 10 0 6 -18 10 -40 10 -22 0 -40 5 -40 10 0 6 -8 10 -18 10 -10 0
-24 9 -32 20 -8 11 -22 20 -32 20 -10 0 -18 5 -18 10 0 6 -7 10 -16 10 -8 0
-37 23 -64 50 -27 28 -51 50 -54 50 -19 0 0 -37 39 -75 24 -25 51 -45 60 -45
8 0 15 -4 15 -10 0 -5 8 -10 18 -10 10 0 24 -9 32 -20 8 -12 26 -20 42 -20 15
0 28 -4 28 -10 0 -5 14 -10 30 -10 17 0 30 -4 30 -10 0 -6 37 -10 90 -10 53 0
90 4 90 10 0 6 14 10 30 10 17 0 30 5 30 10 0 6 14 10 30 10 17 0 30 5 30 10
0 6 14 10 30 10 17 0 30 5 30 10 0 6 13 10 29 10 16 0 31 6 34 13 3 8 11 5 24
-10 11 -13 28 -23 37 -23 9 0 16 -4 16 -10 0 -5 14 -10 30 -10 17 0 30 -4 30
-10 0 -5 8 -10 18 -10 10 0 24 -9 32 -20 13 -18 26 -20 162 -20 92 0 148 4
148 10 0 6 8 10 18 10 10 0 24 9 32 20 8 11 21 20 30 20 9 0 22 9 30 20 8 11
22 20 32 20 11 0 18 7 18 20 0 11 -4 20 -10 20 -5 0 -10 -4 -10 -10 0 -5 -7
-10 -16 -10 -9 0 -29 -13 -44 -30 -15 -16 -35 -30 -44 -30 -9 0 -16 -4 -16
-10 0 -5 -9 -10 -20 -10 -11 0 -20 -4 -20 -10 0 -6 -49 -10 -128 -10 -116 0
-129 2 -142 20 -8 11 -22 20 -32 20 -10 0 -18 5 -18 10 0 6 -13 10 -30 10 -16
0 -30 5 -30 10 0 6 -7 10 -15 10 -22 0 -73 52 -57 58 7 2 12 17 12 33 0 16 5
29 10 29 6 0 10 18 10 40 0 22 5 40 10 40 6 0 10 9 10 20 0 11 5 20 10 20 6 0
10 8 10 18 0 10 9 24 20 32 11 8 20 20 20 28 0 22 48 62 75 62 14 0 25 5 25
10 0 6 12 10 26 10 31 0 54 21 54 50 0 25 -22 50 -44 50 -9 0 -16 5 -16 10 0
6 -9 10 -20 10 -11 0 -20 5 -20 10 0 6 -50 10 -130 10 -80 0 -130 4 -130 10 0
6 -30 10 -70 10 -40 0 -70 -4 -70 -10z m120 -20 c0 -6 50 -10 130 -10 80 0
130 -4 130 -10 0 -5 9 -10 20 -10 11 0 20 -4 20 -10 0 -5 7 -10 16 -10 8 0 22
-7 30 -15 14 -13 14 -17 0 -30 -8 -8 -26 -15 -40 -15 -14 0 -26 -4 -26 -10 0
-5 -11 -10 -25 -10 -27 0 -75 -40 -75 -62 0 -8 -9 -20 -20 -28 -11 -8 -20 -22
-20 -32 0 -10 -4 -18 -10 -18 -5 0 -10 -9 -10 -20 0 -11 -4 -20 -10 -20 -5 0
-10 -18 -10 -40 0 -33 -3 -40 -20 -40 -16 0 -20 7 -20 30 0 17 -4 30 -10 30
-5 0 -10 7 -10 15 0 9 -16 31 -35 50 -19 19 -41 35 -50 35 -8 0 -15 5 -15 10
0 6 -17 10 -38 10 -26 0 -42 6 -52 20 -8 11 -22 20 -32 20 -10 0 -18 5 -18 10
0 6 -9 10 -20 10 -13 0 -20 7 -20 20 0 11 -4 20 -10 20 -21 0 -9 32 25 65 29
30 41 35 80 35 25 0 45 5 45 10 0 6 23 10 50 10 28 0 50 -4 50 -10z"/>
<path d="M2760 1820 c-12 -17 -26 -20 -82 -20 -39 0 -68 -4 -68 -10 0 -6 -30
-10 -70 -10 -40 0 -70 -4 -70 -10 0 -6 33 -10 80 -10 47 0 80 4 80 10 0 6 28
10 65 10 57 0 69 3 90 25 30 29 31 35 7 35 -10 0 -24 -9 -32 -20z"/>
<path d="M790 1770 c0 -5 9 -10 20 -10 11 0 20 -4 20 -10 0 -5 9 -10 20 -10
11 0 20 -4 20 -10 0 -5 9 -10 20 -10 13 0 20 -7 20 -20 0 -11 5 -20 10 -20 6
0 10 -9 10 -20 0 -11 5 -20 10 -20 6 0 10 11 10 25 0 29 -40 75 -65 75 -8 0
-15 5 -15 10 0 6 -9 10 -20 10 -11 0 -20 5 -20 10 0 6 -9 10 -20 10 -11 0 -20
-4 -20 -10z"/>
<path d="M2450 1650 c0 -5 -9 -10 -20 -10 -13 0 -20 -7 -20 -19 0 -11 -6 -22
-12 -25 -10 -5 -10 -7 0 -12 6 -3 12 -14 12 -25 0 -12 7 -19 20 -19 11 0 20
-4 20 -10 0 -15 49 -12 66 4 22 23 17 74 -11 101 -24 25 -55 33 -55 15z m46
-24 c8 -8 14 -31 14 -50 0 -32 -3 -36 -25 -36 -14 0 -37 11 -51 25 -22 22 -23
27 -10 40 8 8 22 15 30 15 9 0 16 5 16 10 0 14 9 12 26 -4z"/>
<path d="M2730 1380 c0 -13 7 -20 20 -20 11 0 20 -4 20 -10 0 -15 29 -12 46 4
19 20 18 26 -6 26 -11 0 -20 5 -20 10 0 6 -13 10 -30 10 -23 0 -30 -4 -30 -20z"/>
<path d="M2930 1310 c0 -5 18 -10 40 -10 22 0 40 -4 40 -10 0 -5 9 -10 20 -10
11 0 20 -4 20 -10 0 -5 7 -10 16 -10 18 0 44 -23 44 -40 0 -15 50 -64 57 -56
4 3 -4 14 -15 25 -12 10 -22 24 -22 30 0 22 -69 81 -95 81 -14 0 -25 5 -25 10
0 6 -18 10 -40 10 -22 0 -40 -4 -40 -10z"/>
<path d="M2370 1210 c0 -5 -17 -10 -38 -10 -26 0 -42 -6 -52 -20 -8 -11 -22
-20 -32 -20 -10 0 -18 -4 -18 -10 0 -5 -13 -10 -30 -10 -16 0 -30 -4 -30 -10
0 -5 -9 -10 -20 -10 -11 0 -20 -4 -20 -10 0 -5 -13 -10 -30 -10 -16 0 -30 -4
-30 -10 0 -6 -27 -10 -60 -10 -33 0 -60 -4 -60 -10 0 -6 -57 -10 -150 -10 -93
0 -150 4 -150 10 0 6 -9 10 -20 10 -11 0 -20 5 -20 10 0 6 -9 10 -20 10 -11 0
-20 5 -20 10 0 6 -27 10 -60 10 -33 0 -60 4 -60 10 0 6 -18 10 -40 10 -22 0
-40 -4 -40 -10 0 -5 18 -10 40 -10 22 0 40 -4 40 -10 0 -6 27 -10 60 -10 33 0
60 -4 60 -10 0 -5 8 -10 18 -10 10 0 24 -9 32 -20 13 -19 26 -20 182 -20 105
0 168 4 168 10 0 6 23 10 50 10 28 0 50 5 50 10 0 6 14 10 30 10 17 0 30 5 30
10 0 6 14 10 30 10 17 0 30 5 30 10 0 6 13 10 28 10 16 0 34 8 42 20 8 11 22
20 32 20 10 0 18 5 18 10 0 6 14 10 30 10 17 0 30 5 30 10 0 6 27 10 60 10 33
0 60 4 60 10 0 6 -27 10 -60 10 -33 0 -60 -4 -60 -10z"/>
</g>
</svg>
